<?xml version="1.0" encoding="UTF-8" standalone="no"?>
<!DOCTYPE svg PUBLIC "-//W3C//DTD SVG 1.1//EN"
 "http://www.w3.org/Graphics/SVG/1.1/DTD/svg11.dtd">
<!-- Generated by graphviz version 2.40.1 (20161225.0304)
 -->
<!-- Title: G Pages: 1 -->
<svg width="652pt" height="271pt"
 viewBox="0.00 0.00 652.20 271.20" xmlns="http://www.w3.org/2000/svg" xmlns:xlink="http://www.w3.org/1999/xlink">
<g id="graph0" class="graph" transform="scale(1 1) rotate(0) translate(21.6 249.6)">
<title>G</title>
<polygon fill="#111111" stroke="transparent" points="-21.6,21.6 -21.6,-249.6 630.6,-249.6 630.6,21.6 -21.6,21.6"/>
<!-- config/keys.js -->
<g id="node1" class="node">
<title>config/keys.js</title>
<path fill="none" stroke="#cfffac" d="M395.8333,-228C395.8333,-228 307.1667,-228 307.1667,-228 303.3333,-228 299.5,-224.1667 299.5,-220.3333 299.5,-220.3333 299.5,-212.6667 299.5,-212.6667 299.5,-208.8333 303.3333,-205 307.1667,-205 307.1667,-205 395.8333,-205 395.8333,-205 399.6667,-205 403.5,-208.8333 403.5,-212.6667 403.5,-212.6667 403.5,-220.3333 403.5,-220.3333 403.5,-224.1667 399.6667,-228 395.8333,-228"/>
<text text-anchor="middle" x="351.5" y="-212.8" font-family="Arial" font-size="14.00" fill="#cfffac">config/keys.js</text>
</g>
<!-- config/passport.js -->
<g id="node2" class="node">
<title>config/passport.js</title>
<path fill="none" stroke="#c6c5fe" d="M232.8333,-228C232.8333,-228 118.1667,-228 118.1667,-228 114.3333,-228 110.5,-224.1667 110.5,-220.3333 110.5,-220.3333 110.5,-212.6667 110.5,-212.6667 110.5,-208.8333 114.3333,-205 118.1667,-205 118.1667,-205 232.8333,-205 232.8333,-205 236.6667,-205 240.5,-208.8333 240.5,-212.6667 240.5,-212.6667 240.5,-220.3333 240.5,-220.3333 240.5,-224.1667 236.6667,-228 232.8333,-228"/>
<text text-anchor="middle" x="175.5" y="-212.8" font-family="Arial" font-size="14.00" fill="#c6c5fe">config/passport.js</text>
</g>
<!-- config/passport.js&#45;&gt;config/keys.js -->
<g id="edge1" class="edge">
<title>config/passport.js&#45;&gt;config/keys.js</title>
<path fill="none" stroke="#757575" d="M240.5359,-216.5C256.4405,-216.5 273.4211,-216.5 289.1945,-216.5"/>
<polygon fill="#757575" stroke="#757575" points="289.3622,-220.0001 299.3621,-216.5 289.3621,-213.0001 289.3622,-220.0001"/>
</g>
<!-- models/Profile.js -->
<g id="node3" class="node">
<title>models/Profile.js</title>
<path fill="none" stroke="#cfffac" d="M404.8333,-64C404.8333,-64 298.1667,-64 298.1667,-64 294.3333,-64 290.5,-60.1667 290.5,-56.3333 290.5,-56.3333 290.5,-48.6667 290.5,-48.6667 290.5,-44.8333 294.3333,-41 298.1667,-41 298.1667,-41 404.8333,-41 404.8333,-41 408.6667,-41 412.5,-44.8333 412.5,-48.6667 412.5,-48.6667 412.5,-56.3333 412.5,-56.3333 412.5,-60.1667 408.6667,-64 404.8333,-64"/>
<text text-anchor="middle" x="351.5" y="-48.8" font-family="Arial" font-size="14.00" fill="#cfffac">models/Profile.js</text>
</g>
<!-- models/User.js -->
<g id="node4" class="node">
<title>models/User.js</title>
<path fill="none" stroke="#cfffac" d="M399.8333,-105C399.8333,-105 303.1667,-105 303.1667,-105 299.3333,-105 295.5,-101.1667 295.5,-97.3333 295.5,-97.3333 295.5,-89.6667 295.5,-89.6667 295.5,-85.8333 299.3333,-82 303.1667,-82 303.1667,-82 399.8333,-82 399.8333,-82 403.6667,-82 407.5,-85.8333 407.5,-89.6667 407.5,-89.6667 407.5,-97.3333 407.5,-97.3333 407.5,-101.1667 403.6667,-105 399.8333,-105"/>
<text text-anchor="middle" x="351.5" y="-89.8" font-family="Arial" font-size="14.00" fill="#cfffac">models/User.js</text>
</g>
<!-- routes/api/posts.js -->
<g id="node5" class="node">
<title>routes/api/posts.js</title>
<path fill="none" stroke="#cfffac" d="M234.8333,-107C234.8333,-107 116.1667,-107 116.1667,-107 112.3333,-107 108.5,-103.1667 108.5,-99.3333 108.5,-99.3333 108.5,-91.6667 108.5,-91.6667 108.5,-87.8333 112.3333,-84 116.1667,-84 116.1667,-84 234.8333,-84 234.8333,-84 238.6667,-84 242.5,-87.8333 242.5,-91.6667 242.5,-91.6667 242.5,-99.3333 242.5,-99.3333 242.5,-103.1667 238.6667,-107 234.8333,-107"/>
<text text-anchor="middle" x="175.5" y="-91.8" font-family="Arial" font-size="14.00" fill="#cfffac">routes/api/posts.js</text>
</g>
<!-- routes/api/profile.js -->
<g id="node6" class="node">
<title>routes/api/profile.js</title>
<path fill="none" stroke="#c6c5fe" d="M236.3333,-65C236.3333,-65 114.6667,-65 114.6667,-65 110.8333,-65 107,-61.1667 107,-57.3333 107,-57.3333 107,-49.6667 107,-49.6667 107,-45.8333 110.8333,-42 114.6667,-42 114.6667,-42 236.3333,-42 236.3333,-42 240.1667,-42 244,-45.8333 244,-49.6667 244,-49.6667 244,-57.3333 244,-57.3333 244,-61.1667 240.1667,-65 236.3333,-65"/>
<text text-anchor="middle" x="175.5" y="-49.8" font-family="Arial" font-size="14.00" fill="#c6c5fe">routes/api/profile.js</text>
</g>
<!-- routes/api/profile.js&#45;&gt;models/Profile.js -->
<g id="edge2" class="edge">
<title>routes/api/profile.js&#45;&gt;models/Profile.js</title>
<path fill="none" stroke="#757575" d="M244.0502,-53.1105C255.8451,-53.0435 268.1308,-52.9737 280.001,-52.9062"/>
<polygon fill="#757575" stroke="#757575" points="280.3228,-56.4046 290.3027,-52.8477 280.2829,-49.4047 280.3228,-56.4046"/>
</g>
<!-- routes/api/profile.js&#45;&gt;models/User.js -->
<g id="edge3" class="edge">
<title>routes/api/profile.js&#45;&gt;models/User.js</title>
<path fill="none" stroke="#757575" d="M226.4065,-65.0697C246.5643,-69.651 269.9004,-74.9546 290.9183,-79.7314"/>
<polygon fill="#757575" stroke="#757575" points="290.1809,-83.153 300.7079,-81.9563 291.7323,-76.3271 290.1809,-83.153"/>
</g>
<!-- validation/profile.js -->
<g id="node7" class="node">
<title>validation/profile.js</title>
<path fill="none" stroke="#c6c5fe" d="M411.3333,-23C411.3333,-23 291.6667,-23 291.6667,-23 287.8333,-23 284,-19.1667 284,-15.3333 284,-15.3333 284,-7.6667 284,-7.6667 284,-3.8333 287.8333,0 291.6667,0 291.6667,0 411.3333,0 411.3333,0 415.1667,0 419,-3.8333 419,-7.6667 419,-7.6667 419,-15.3333 419,-15.3333 419,-19.1667 415.1667,-23 411.3333,-23"/>
<text text-anchor="middle" x="351.5" y="-7.8" font-family="Arial" font-size="14.00" fill="#c6c5fe">validation/profile.js</text>
</g>
<!-- routes/api/profile.js&#45;&gt;validation/profile.js -->
<g id="edge4" class="edge">
<title>routes/api/profile.js&#45;&gt;validation/profile.js</title>
<path fill="none" stroke="#757575" d="M224.0587,-41.9121C245.5076,-36.7936 270.8981,-30.7345 293.3485,-25.3771"/>
<polygon fill="#757575" stroke="#757575" points="294.1854,-28.7757 303.0998,-23.05 292.5605,-21.9669 294.1854,-28.7757"/>
</g>
<!-- validation/is&#45;empty.js -->
<g id="node12" class="node">
<title>validation/is&#45;empty.js</title>
<path fill="none" stroke="#cfffac" d="M601.3333,-146C601.3333,-146 466.6667,-146 466.6667,-146 462.8333,-146 459,-142.1667 459,-138.3333 459,-138.3333 459,-130.6667 459,-130.6667 459,-126.8333 462.8333,-123 466.6667,-123 466.6667,-123 601.3333,-123 601.3333,-123 605.1667,-123 609,-126.8333 609,-130.6667 609,-130.6667 609,-138.3333 609,-138.3333 609,-142.1667 605.1667,-146 601.3333,-146"/>
<text text-anchor="middle" x="534" y="-130.8" font-family="Arial" font-size="14.00" fill="#cfffac">validation/is&#45;empty.js</text>
</g>
<!-- validation/profile.js&#45;&gt;validation/is&#45;empty.js -->
<g id="edge15" class="edge">
<title>validation/profile.js&#45;&gt;validation/is&#45;empty.js</title>
<path fill="none" stroke="#757575" d="M404.2069,-23.1219C410.729,-25.4563 417.1516,-28.2256 423,-31.5 462.0211,-53.3468 498.1957,-91.639 518.077,-114.8746"/>
<polygon fill="#757575" stroke="#757575" points="515.5305,-117.2848 524.6396,-122.6955 520.8928,-112.7852 515.5305,-117.2848"/>
</g>
<!-- routes/api/users.js -->
<g id="node8" class="node">
<title>routes/api/users.js</title>
<path fill="none" stroke="#c6c5fe" d="M234.8333,-148C234.8333,-148 116.1667,-148 116.1667,-148 112.3333,-148 108.5,-144.1667 108.5,-140.3333 108.5,-140.3333 108.5,-132.6667 108.5,-132.6667 108.5,-128.8333 112.3333,-125 116.1667,-125 116.1667,-125 234.8333,-125 234.8333,-125 238.6667,-125 242.5,-128.8333 242.5,-132.6667 242.5,-132.6667 242.5,-140.3333 242.5,-140.3333 242.5,-144.1667 238.6667,-148 234.8333,-148"/>
<text text-anchor="middle" x="175.5" y="-132.8" font-family="Arial" font-size="14.00" fill="#c6c5fe">routes/api/users.js</text>
</g>
<!-- routes/api/users.js&#45;&gt;config/keys.js -->
<g id="edge5" class="edge">
<title>routes/api/users.js&#45;&gt;config/keys.js</title>
<path fill="none" stroke="#757575" d="M213.6825,-148.0754C223.9012,-151.9426 234.6874,-156.7602 244,-162.5 262.4773,-173.8885 261.0975,-184.832 280,-195.5 283.7392,-197.6103 287.7106,-199.5264 291.7911,-201.2632"/>
<polygon fill="#757575" stroke="#757575" points="290.863,-204.6567 301.4524,-204.9971 293.3866,-198.1274 290.863,-204.6567"/>
</g>
<!-- routes/api/users.js&#45;&gt;models/User.js -->
<g id="edge6" class="edge">
<title>routes/api/users.js&#45;&gt;models/User.js</title>
<path fill="none" stroke="#757575" d="M222.6648,-124.9768C244.7603,-119.5784 271.2692,-113.1019 294.4813,-107.4307"/>
<polygon fill="#757575" stroke="#757575" points="295.3215,-110.8285 304.205,-105.055 293.6601,-104.0285 295.3215,-110.8285"/>
</g>
<!-- validation/login.js -->
<g id="node9" class="node">
<title>validation/login.js</title>
<path fill="none" stroke="#c6c5fe" d="M407.3333,-187C407.3333,-187 295.6667,-187 295.6667,-187 291.8333,-187 288,-183.1667 288,-179.3333 288,-179.3333 288,-171.6667 288,-171.6667 288,-167.8333 291.8333,-164 295.6667,-164 295.6667,-164 407.3333,-164 407.3333,-164 411.1667,-164 415,-167.8333 415,-171.6667 415,-171.6667 415,-179.3333 415,-179.3333 415,-183.1667 411.1667,-187 407.3333,-187"/>
<text text-anchor="middle" x="351.5" y="-171.8" font-family="Arial" font-size="14.00" fill="#c6c5fe">validation/login.js</text>
</g>
<!-- routes/api/users.js&#45;&gt;validation/login.js -->
<g id="edge7" class="edge">
<title>routes/api/users.js&#45;&gt;validation/login.js</title>
<path fill="none" stroke="#757575" d="M227.8293,-148.0957C247.1596,-152.3791 269.2541,-157.2751 289.3693,-161.7324"/>
<polygon fill="#757575" stroke="#757575" points="288.8519,-165.2026 299.3723,-163.949 290.3664,-158.3684 288.8519,-165.2026"/>
</g>
<!-- validation/register.js -->
<g id="node10" class="node">
<title>validation/register.js</title>
<path fill="none" stroke="#c6c5fe" d="M415.3333,-146C415.3333,-146 287.6667,-146 287.6667,-146 283.8333,-146 280,-142.1667 280,-138.3333 280,-138.3333 280,-130.6667 280,-130.6667 280,-126.8333 283.8333,-123 287.6667,-123 287.6667,-123 415.3333,-123 415.3333,-123 419.1667,-123 423,-126.8333 423,-130.6667 423,-130.6667 423,-138.3333 423,-138.3333 423,-142.1667 419.1667,-146 415.3333,-146"/>
<text text-anchor="middle" x="351.5" y="-130.8" font-family="Arial" font-size="14.00" fill="#c6c5fe">validation/register.js</text>
</g>
<!-- routes/api/users.js&#45;&gt;validation/register.js -->
<g id="edge8" class="edge">
<title>routes/api/users.js&#45;&gt;validation/register.js</title>
<path fill="none" stroke="#757575" d="M242.5401,-135.7382C251.4333,-135.6371 260.6297,-135.5326 269.7366,-135.4291"/>
<polygon fill="#757575" stroke="#757575" points="270.0001,-138.9265 279.9597,-135.313 269.9205,-131.9269 270.0001,-138.9265"/>
</g>
<!-- validation/login.js&#45;&gt;validation/is&#45;empty.js -->
<g id="edge14" class="edge">
<title>validation/login.js&#45;&gt;validation/is&#45;empty.js</title>
<path fill="none" stroke="#757575" d="M402.8221,-163.9701C424.5875,-159.0803 450.1283,-153.3424 472.861,-148.2353"/>
<polygon fill="#757575" stroke="#757575" points="473.7576,-151.6212 482.7472,-146.0143 472.2232,-144.7915 473.7576,-151.6212"/>
</g>
<!-- validation/register.js&#45;&gt;validation/is&#45;empty.js -->
<g id="edge16" class="edge">
<title>validation/register.js&#45;&gt;validation/is&#45;empty.js</title>
<path fill="none" stroke="#757575" d="M423.105,-134.5C431.5744,-134.5 440.2808,-134.5 448.9134,-134.5"/>
<polygon fill="#757575" stroke="#757575" points="448.9947,-138.0001 458.9946,-134.5 448.9946,-131.0001 448.9947,-138.0001"/>
</g>
<!-- server.js -->
<g id="node11" class="node">
<title>server.js</title>
<path fill="none" stroke="#c6c5fe" d="M63.3333,-148C63.3333,-148 7.6667,-148 7.6667,-148 3.8333,-148 0,-144.1667 0,-140.3333 0,-140.3333 0,-132.6667 0,-132.6667 0,-128.8333 3.8333,-125 7.6667,-125 7.6667,-125 63.3333,-125 63.3333,-125 67.1667,-125 71,-128.8333 71,-132.6667 71,-132.6667 71,-140.3333 71,-140.3333 71,-144.1667 67.1667,-148 63.3333,-148"/>
<text text-anchor="middle" x="35.5" y="-132.8" font-family="Arial" font-size="14.00" fill="#c6c5fe">server.js</text>
</g>
<!-- server.js&#45;&gt;config/keys.js -->
<g id="edge9" class="edge">
<title>server.js&#45;&gt;config/keys.js</title>
<path fill="none" stroke="#757575" d="M71.0801,-146.6951C82.5277,-149.9102 95.2807,-153.4238 107,-156.5 170.083,-173.0585 242.6965,-190.699 292.297,-202.5343"/>
<polygon fill="#757575" stroke="#757575" points="291.6713,-205.9831 302.2101,-204.8955 293.2933,-199.1736 291.6713,-205.9831"/>
</g>
<!-- server.js&#45;&gt;config/passport.js -->
<g id="edge10" class="edge">
<title>server.js&#45;&gt;config/passport.js</title>
<path fill="none" stroke="#757575" d="M48.4193,-148.0655C62.1697,-159.9252 84.9431,-178.3122 107,-190.5 114.2029,-194.48 122.14,-198.1089 129.9802,-201.31"/>
<polygon fill="#757575" stroke="#757575" points="128.8513,-204.6264 139.4396,-204.9972 131.3936,-198.1043 128.8513,-204.6264"/>
</g>
<!-- server.js&#45;&gt;routes/api/posts.js -->
<g id="edge11" class="edge">
<title>server.js&#45;&gt;routes/api/posts.js</title>
<path fill="none" stroke="#757575" d="M71.138,-126.0207C82.5886,-122.657 95.3289,-118.9178 107,-115.5 113.164,-113.6949 119.6407,-111.8007 126.0507,-109.9275"/>
<polygon fill="#757575" stroke="#757575" points="127.3967,-113.1807 136.0141,-107.017 125.4339,-106.4615 127.3967,-113.1807"/>
</g>
<!-- server.js&#45;&gt;routes/api/profile.js -->
<g id="edge12" class="edge">
<title>server.js&#45;&gt;routes/api/profile.js</title>
<path fill="none" stroke="#757575" d="M46.0139,-124.7929C59.0546,-110.935 82.5677,-88.0357 107,-74.5 110.7334,-72.4317 114.6965,-70.5406 118.7608,-68.8163"/>
<polygon fill="#757575" stroke="#757575" points="120.3093,-71.9698 128.3672,-65.0908 117.7783,-65.4434 120.3093,-71.9698"/>
</g>
<!-- server.js&#45;&gt;routes/api/users.js -->
<g id="edge13" class="edge">
<title>server.js&#45;&gt;routes/api/users.js</title>
<path fill="none" stroke="#757575" d="M71.1902,-136.5C79.5193,-136.5 88.7094,-136.5 98.0789,-136.5"/>
<polygon fill="#757575" stroke="#757575" points="98.284,-140.0001 108.2839,-136.5 98.2839,-133.0001 98.284,-140.0001"/>
</g>
</g>
</svg>
